<mxfile host="app.diagrams.net" agent="Mozilla/5.0 (Windows NT 10.0; Win64; x64) AppleWebKit/537.36 (KHTML, like Gecko) Chrome/133.0.0.0 Safari/537.36" version="26.0.13">
  <diagram name="Page-1" id="yHSHHH-sofYl2VO1gLAC">
    <mxGraphModel dx="1194" dy="716" grid="1" gridSize="10" guides="1" tooltips="1" connect="1" arrows="1" fold="1" page="1" pageScale="1" pageWidth="850" pageHeight="1100" math="0" shadow="0">
      <root>
        <mxCell id="0" />
        <mxCell id="1" parent="0" />
        <mxCell id="4JI8caJ3f9K7Bv_6SXVW-1" value="1" style="ellipse;aspect=fixed;fillColor=#0050ef;fontColor=#ffffff;strokeColor=#001DBC;" parent="1" vertex="1">
          <mxGeometry x="90" y="120" width="50" height="50" as="geometry" />
        </mxCell>
        <mxCell id="4JI8caJ3f9K7Bv_6SXVW-2" value="2" style="ellipse;aspect=fixed;fillColor=#0050ef;fontColor=#ffffff;strokeColor=#001DBC;" parent="1" vertex="1">
          <mxGeometry x="230" y="120" width="50" height="50" as="geometry" />
        </mxCell>
        <mxCell id="4JI8caJ3f9K7Bv_6SXVW-3" value="11" style="ellipse;aspect=fixed;fillColor=#0050ef;fontColor=#ffffff;strokeColor=#001DBC;" parent="1" vertex="1">
          <mxGeometry x="410" y="380" width="50" height="50" as="geometry" />
        </mxCell>
        <mxCell id="4JI8caJ3f9K7Bv_6SXVW-4" value="4" style="ellipse;aspect=fixed;fillColor=#0050ef;fontColor=#ffffff;strokeColor=#001DBC;" parent="1" vertex="1">
          <mxGeometry x="90" y="320" width="50" height="50" as="geometry" />
        </mxCell>
        <mxCell id="4JI8caJ3f9K7Bv_6SXVW-5" value="5" style="ellipse;aspect=fixed;fillColor=#0050ef;fontColor=#ffffff;strokeColor=#001DBC;" parent="1" vertex="1">
          <mxGeometry x="230" y="320" width="50" height="50" as="geometry" />
        </mxCell>
        <mxCell id="4JI8caJ3f9K7Bv_6SXVW-6" value="8" style="ellipse;aspect=fixed;fillColor=#0050ef;fontColor=#ffffff;strokeColor=#001DBC;" parent="1" vertex="1">
          <mxGeometry x="600" y="160" width="50" height="50" as="geometry" />
        </mxCell>
        <mxCell id="4JI8caJ3f9K7Bv_6SXVW-7" value="6" style="ellipse;aspect=fixed;fillColor=#0050ef;fontColor=#ffffff;strokeColor=#001DBC;" parent="1" vertex="1">
          <mxGeometry x="400" y="50" width="50" height="50" as="geometry" />
        </mxCell>
        <mxCell id="4JI8caJ3f9K7Bv_6SXVW-8" value="7" style="ellipse;aspect=fixed;fillColor=#0050ef;fontColor=#ffffff;strokeColor=#001DBC;" parent="1" vertex="1">
          <mxGeometry x="530" y="60" width="50" height="50" as="geometry" />
        </mxCell>
        <mxCell id="4JI8caJ3f9K7Bv_6SXVW-10" value="10" style="ellipse;aspect=fixed;fillColor=#0050ef;fontColor=#ffffff;strokeColor=#001DBC;" parent="1" vertex="1">
          <mxGeometry x="520" y="380" width="50" height="50" as="geometry" />
        </mxCell>
        <mxCell id="4JI8caJ3f9K7Bv_6SXVW-11" value="9" style="ellipse;aspect=fixed;fillColor=#0050ef;fontColor=#ffffff;strokeColor=#001DBC;" parent="1" vertex="1">
          <mxGeometry x="590" y="280" width="50" height="50" as="geometry" />
        </mxCell>
        <mxCell id="4JI8caJ3f9K7Bv_6SXVW-12" value="12" style="ellipse;aspect=fixed;fillColor=#0050ef;fontColor=#ffffff;strokeColor=#001DBC;" parent="1" vertex="1">
          <mxGeometry x="440" y="200" width="50" height="50" as="geometry" />
        </mxCell>
        <mxCell id="4JI8caJ3f9K7Bv_6SXVW-13" value="3" style="ellipse;aspect=fixed;fillColor=#0050ef;fontColor=#ffffff;strokeColor=#001DBC;" parent="1" vertex="1">
          <mxGeometry x="160" y="210" width="50" height="50" as="geometry" />
        </mxCell>
        <mxCell id="4JI8caJ3f9K7Bv_6SXVW-14" value="13" style="ellipse;aspect=fixed;fillColor=#0050ef;fontColor=#ffffff;strokeColor=#001DBC;" parent="1" vertex="1">
          <mxGeometry x="710" y="90" width="50" height="50" as="geometry" />
        </mxCell>
        <mxCell id="4JI8caJ3f9K7Bv_6SXVW-15" value="14" style="ellipse;aspect=fixed;fillColor=#0050ef;fontColor=#ffffff;strokeColor=#001DBC;" parent="1" vertex="1">
          <mxGeometry x="670" y="450" width="50" height="50" as="geometry" />
        </mxCell>
        <mxCell id="4JI8caJ3f9K7Bv_6SXVW-16" value="" style="endArrow=none;rounded=0;exitX=1;exitY=0.5;exitDx=0;exitDy=0;entryX=0;entryY=0.5;entryDx=0;entryDy=0;strokeWidth=3;" parent="1" source="4JI8caJ3f9K7Bv_6SXVW-13" target="4JI8caJ3f9K7Bv_6SXVW-12" edge="1">
          <mxGeometry width="50" height="50" relative="1" as="geometry">
            <mxPoint x="360" y="360" as="sourcePoint" />
            <mxPoint x="410" y="310" as="targetPoint" />
          </mxGeometry>
        </mxCell>
        <mxCell id="4JI8caJ3f9K7Bv_6SXVW-18" value="" style="endArrow=none;rounded=0;exitX=1;exitY=0.5;exitDx=0;exitDy=0;entryX=0;entryY=0.5;entryDx=0;entryDy=0;strokeWidth=3;" parent="1" source="4JI8caJ3f9K7Bv_6SXVW-1" target="4JI8caJ3f9K7Bv_6SXVW-2" edge="1">
          <mxGeometry width="50" height="50" relative="1" as="geometry">
            <mxPoint x="220" y="245" as="sourcePoint" />
            <mxPoint x="450" y="235" as="targetPoint" />
          </mxGeometry>
        </mxCell>
        <mxCell id="4JI8caJ3f9K7Bv_6SXVW-19" value="" style="endArrow=none;rounded=0;exitX=1;exitY=0.5;exitDx=0;exitDy=0;entryX=0;entryY=0.5;entryDx=0;entryDy=0;strokeWidth=3;" parent="1" source="4JI8caJ3f9K7Bv_6SXVW-4" target="4JI8caJ3f9K7Bv_6SXVW-5" edge="1">
          <mxGeometry width="50" height="50" relative="1" as="geometry">
            <mxPoint x="230" y="255" as="sourcePoint" />
            <mxPoint x="460" y="245" as="targetPoint" />
          </mxGeometry>
        </mxCell>
        <mxCell id="4JI8caJ3f9K7Bv_6SXVW-20" value="" style="endArrow=none;rounded=0;exitX=1;exitY=1;exitDx=0;exitDy=0;entryX=0;entryY=0;entryDx=0;entryDy=0;strokeWidth=3;" parent="1" source="4JI8caJ3f9K7Bv_6SXVW-1" target="4JI8caJ3f9K7Bv_6SXVW-13" edge="1">
          <mxGeometry width="50" height="50" relative="1" as="geometry">
            <mxPoint x="240" y="265" as="sourcePoint" />
            <mxPoint x="470" y="255" as="targetPoint" />
          </mxGeometry>
        </mxCell>
        <mxCell id="4JI8caJ3f9K7Bv_6SXVW-21" value="" style="endArrow=none;rounded=0;exitX=0;exitY=1;exitDx=0;exitDy=0;entryX=1;entryY=0;entryDx=0;entryDy=0;strokeWidth=3;" parent="1" source="4JI8caJ3f9K7Bv_6SXVW-2" target="4JI8caJ3f9K7Bv_6SXVW-13" edge="1">
          <mxGeometry width="50" height="50" relative="1" as="geometry">
            <mxPoint x="250" y="275" as="sourcePoint" />
            <mxPoint x="480" y="265" as="targetPoint" />
          </mxGeometry>
        </mxCell>
        <mxCell id="4JI8caJ3f9K7Bv_6SXVW-22" value="" style="endArrow=none;rounded=0;exitX=1;exitY=1;exitDx=0;exitDy=0;entryX=0;entryY=0;entryDx=0;entryDy=0;strokeWidth=3;" parent="1" source="4JI8caJ3f9K7Bv_6SXVW-13" target="4JI8caJ3f9K7Bv_6SXVW-5" edge="1">
          <mxGeometry width="50" height="50" relative="1" as="geometry">
            <mxPoint x="260" y="285" as="sourcePoint" />
            <mxPoint x="490" y="275" as="targetPoint" />
          </mxGeometry>
        </mxCell>
        <mxCell id="4JI8caJ3f9K7Bv_6SXVW-24" value="" style="endArrow=none;rounded=0;exitX=1;exitY=0.5;exitDx=0;exitDy=0;entryX=0;entryY=0.5;entryDx=0;entryDy=0;strokeWidth=3;" parent="1" source="4JI8caJ3f9K7Bv_6SXVW-7" target="4JI8caJ3f9K7Bv_6SXVW-8" edge="1">
          <mxGeometry width="50" height="50" relative="1" as="geometry">
            <mxPoint x="280" y="305" as="sourcePoint" />
            <mxPoint x="510" y="295" as="targetPoint" />
          </mxGeometry>
        </mxCell>
        <mxCell id="4JI8caJ3f9K7Bv_6SXVW-25" value="" style="endArrow=none;rounded=0;exitX=1;exitY=0;exitDx=0;exitDy=0;entryX=0;entryY=1;entryDx=0;entryDy=0;strokeWidth=3;" parent="1" source="4JI8caJ3f9K7Bv_6SXVW-12" target="4JI8caJ3f9K7Bv_6SXVW-8" edge="1">
          <mxGeometry width="50" height="50" relative="1" as="geometry">
            <mxPoint x="290" y="315" as="sourcePoint" />
            <mxPoint x="520" y="305" as="targetPoint" />
          </mxGeometry>
        </mxCell>
        <mxCell id="4JI8caJ3f9K7Bv_6SXVW-26" value="" style="endArrow=none;rounded=0;exitX=1;exitY=0.5;exitDx=0;exitDy=0;entryX=0;entryY=1;entryDx=0;entryDy=0;strokeWidth=3;" parent="1" source="4JI8caJ3f9K7Bv_6SXVW-12" target="4JI8caJ3f9K7Bv_6SXVW-6" edge="1">
          <mxGeometry width="50" height="50" relative="1" as="geometry">
            <mxPoint x="300" y="325" as="sourcePoint" />
            <mxPoint x="530" y="315" as="targetPoint" />
          </mxGeometry>
        </mxCell>
        <mxCell id="4JI8caJ3f9K7Bv_6SXVW-27" value="" style="endArrow=none;rounded=0;exitX=1;exitY=1;exitDx=0;exitDy=0;entryX=0;entryY=0;entryDx=0;entryDy=0;strokeWidth=3;" parent="1" source="4JI8caJ3f9K7Bv_6SXVW-12" target="4JI8caJ3f9K7Bv_6SXVW-11" edge="1">
          <mxGeometry width="50" height="50" relative="1" as="geometry">
            <mxPoint x="310" y="335" as="sourcePoint" />
            <mxPoint x="540" y="325" as="targetPoint" />
          </mxGeometry>
        </mxCell>
        <mxCell id="4JI8caJ3f9K7Bv_6SXVW-28" value="" style="endArrow=none;rounded=0;exitX=1;exitY=1;exitDx=0;exitDy=0;entryX=0.5;entryY=0;entryDx=0;entryDy=0;strokeWidth=3;" parent="1" source="4JI8caJ3f9K7Bv_6SXVW-12" target="4JI8caJ3f9K7Bv_6SXVW-10" edge="1">
          <mxGeometry width="50" height="50" relative="1" as="geometry">
            <mxPoint x="320" y="345" as="sourcePoint" />
            <mxPoint x="550" y="335" as="targetPoint" />
          </mxGeometry>
        </mxCell>
        <mxCell id="4JI8caJ3f9K7Bv_6SXVW-29" value="" style="endArrow=none;rounded=0;exitX=1;exitY=0;exitDx=0;exitDy=0;entryX=0.5;entryY=1;entryDx=0;entryDy=0;strokeWidth=3;" parent="1" source="4JI8caJ3f9K7Bv_6SXVW-3" target="4JI8caJ3f9K7Bv_6SXVW-12" edge="1">
          <mxGeometry width="50" height="50" relative="1" as="geometry">
            <mxPoint x="330" y="355" as="sourcePoint" />
            <mxPoint x="560" y="345" as="targetPoint" />
          </mxGeometry>
        </mxCell>
        <mxCell id="4JI8caJ3f9K7Bv_6SXVW-30" value="" style="endArrow=none;rounded=0;exitX=0;exitY=0;exitDx=0;exitDy=0;entryX=1;entryY=0.5;entryDx=0;entryDy=0;strokeWidth=3;" parent="1" source="4JI8caJ3f9K7Bv_6SXVW-15" target="4JI8caJ3f9K7Bv_6SXVW-10" edge="1">
          <mxGeometry width="50" height="50" relative="1" as="geometry">
            <mxPoint x="340" y="365" as="sourcePoint" />
            <mxPoint x="570" y="355" as="targetPoint" />
          </mxGeometry>
        </mxCell>
        <mxCell id="4JI8caJ3f9K7Bv_6SXVW-31" value="" style="endArrow=none;rounded=0;exitX=1;exitY=0;exitDx=0;exitDy=0;entryX=0;entryY=0.5;entryDx=0;entryDy=0;strokeWidth=3;" parent="1" source="4JI8caJ3f9K7Bv_6SXVW-6" target="4JI8caJ3f9K7Bv_6SXVW-14" edge="1">
          <mxGeometry width="50" height="50" relative="1" as="geometry">
            <mxPoint x="350" y="375" as="sourcePoint" />
            <mxPoint x="580" y="365" as="targetPoint" />
          </mxGeometry>
        </mxCell>
        <mxCell id="4JI8caJ3f9K7Bv_6SXVW-61" value="" style="endArrow=none;rounded=0;exitX=0.5;exitY=0;exitDx=0;exitDy=0;entryX=0;entryY=1;entryDx=0;entryDy=0;strokeWidth=3;" parent="1" source="4JI8caJ3f9K7Bv_6SXVW-4" target="4JI8caJ3f9K7Bv_6SXVW-13" edge="1">
          <mxGeometry width="50" height="50" relative="1" as="geometry">
            <mxPoint x="125" y="180" as="sourcePoint" />
            <mxPoint x="170" y="245" as="targetPoint" />
          </mxGeometry>
        </mxCell>
        <mxCell id="Ue8GcbXD9kRpcIbubXK3-2" value="" style="endArrow=none;rounded=0;exitX=0.5;exitY=1;exitDx=0;exitDy=0;entryX=0.5;entryY=0;entryDx=0;entryDy=0;strokeWidth=3;" edge="1" parent="1" source="4JI8caJ3f9K7Bv_6SXVW-7" target="4JI8caJ3f9K7Bv_6SXVW-12">
          <mxGeometry width="50" height="50" relative="1" as="geometry">
            <mxPoint x="220" y="245" as="sourcePoint" />
            <mxPoint x="450" y="235" as="targetPoint" />
          </mxGeometry>
        </mxCell>
        <mxCell id="Ue8GcbXD9kRpcIbubXK3-3" value="" style="endArrow=none;rounded=0;exitX=0.5;exitY=1;exitDx=0;exitDy=0;entryX=0.5;entryY=0;entryDx=0;entryDy=0;strokeWidth=3;" edge="1" parent="1" source="4JI8caJ3f9K7Bv_6SXVW-14" target="4JI8caJ3f9K7Bv_6SXVW-15">
          <mxGeometry width="50" height="50" relative="1" as="geometry">
            <mxPoint x="230" y="255" as="sourcePoint" />
            <mxPoint x="460" y="245" as="targetPoint" />
          </mxGeometry>
        </mxCell>
        <mxCell id="Ue8GcbXD9kRpcIbubXK3-4" value="" style="endArrow=none;rounded=0;exitX=1;exitY=1;exitDx=0;exitDy=0;entryX=0;entryY=0;entryDx=0;entryDy=0;strokeWidth=3;" edge="1" parent="1" source="4JI8caJ3f9K7Bv_6SXVW-11" target="4JI8caJ3f9K7Bv_6SXVW-15">
          <mxGeometry width="50" height="50" relative="1" as="geometry">
            <mxPoint x="240" y="265" as="sourcePoint" />
            <mxPoint x="470" y="255" as="targetPoint" />
          </mxGeometry>
        </mxCell>
        <mxCell id="Ue8GcbXD9kRpcIbubXK3-5" value="" style="endArrow=none;rounded=0;exitX=0.5;exitY=1;exitDx=0;exitDy=0;entryX=0.5;entryY=0;entryDx=0;entryDy=0;strokeWidth=3;" edge="1" parent="1" source="4JI8caJ3f9K7Bv_6SXVW-1" target="4JI8caJ3f9K7Bv_6SXVW-4">
          <mxGeometry width="50" height="50" relative="1" as="geometry">
            <mxPoint x="250" y="275" as="sourcePoint" />
            <mxPoint x="480" y="265" as="targetPoint" />
          </mxGeometry>
        </mxCell>
        <mxCell id="Ue8GcbXD9kRpcIbubXK3-6" value="" style="endArrow=none;rounded=0;exitX=0.5;exitY=1;exitDx=0;exitDy=0;entryX=0.5;entryY=0;entryDx=0;entryDy=0;strokeWidth=3;" edge="1" parent="1" source="4JI8caJ3f9K7Bv_6SXVW-2" target="4JI8caJ3f9K7Bv_6SXVW-5">
          <mxGeometry width="50" height="50" relative="1" as="geometry">
            <mxPoint x="260" y="285" as="sourcePoint" />
            <mxPoint x="490" y="275" as="targetPoint" />
          </mxGeometry>
        </mxCell>
      </root>
    </mxGraphModel>
  </diagram>
</mxfile>
